<svg xmlns="http://www.w3.org/2000/svg" width="827.725" height="362.992" viewBox="0 0 827.725 362.992">
  <g id="Group_4" data-name="Group 4" transform="translate(-181.413 -239.449)">
    <g id="Group_2" data-name="Group 2">
      <g id="Group_1" data-name="Group 1">
        <path id="Path_1" data-name="Path 1" d="M907.894,386.834c-12.764-9.316-29.132-13.966-55.927-13.946l-61.525.045,6.512,19.333a29.661,29.661,0,0,0,28.133,20.194l23.694-.017c7.074-.005,9.29.531,13.471,1.6a20.582,20.582,0,0,1,9.65,4.977,16.752,16.752,0,0,1,4.509,8.2,51.755,51.755,0,0,1,1.133,11.576l.006,7.8a72.02,72.02,0,0,0-16.243-6.1q-9.815-2.562-25.889-2.553-33.123.024-49.189,12.094T770.179,488.8l.005,6.753a64.879,64.879,0,0,0,3.231,21.221,37.162,37.162,0,0,0,10.623,15.909q7.4,6.59,19.462,9.955t30.069,3.353l56.917-.042a77.756,77.756,0,0,0,17.042-1.62,25.273,25.273,0,0,0,11.411-5.475,21.753,21.753,0,0,0,6.263-10.295A55.441,55.441,0,0,0,927.12,512.8l-.058-79.189Q927.036,400.809,907.894,386.834ZM877.275,510.261l-34.086.026q-13.5.009-18.653-4.167t-5.155-13.5l0-2.25q-.006-9.965,5.3-13.993t20.416-4.034l4.5,0q17.04-.012,22.352,4.647t5.316,14.627Z" fill="#f8d00c"/>
        <path id="Path_2" data-name="Path 2" d="M350.846,387.009q-9.5-7.545-24.608-10.754a170.462,170.462,0,0,0-32.592-3.156l.057-.036-112.29.083,7.331,21.5a25.91,25.91,0,0,0,24.543,17.549h0a94.79,94.79,0,0,0-2.768,24.281l.081,109.974,51.128-.037-.078-106.116a59.919,59.919,0,0,1,.957-11.577,15.208,15.208,0,0,1,12.371-12.711,62.108,62.108,0,0,1,14.951-1.459,62.158,62.158,0,0,1,14.954,1.437,15.211,15.211,0,0,1,12.39,12.692,59.939,59.939,0,0,1,.973,11.576l.078,106.116,51.129-.038-.081-109.974q-.014-17.682-4.524-29.742A44.381,44.381,0,0,0,350.846,387.009Z" fill="#f8d00c"/>
        <path id="Path_3" data-name="Path 3" d="M924.012,307l6.693,19.628a28.67,28.67,0,0,0,27.157,19.417h0l.147,199.853,51.129-.038-.176-238.923Z" fill="#f8d00c"/>
        <path id="Path_4" data-name="Path 4" d="M538.585,389.764q-17.378-16.869-57.9-16.839L373.9,373l7.088,20.785a26.962,26.962,0,0,0,25.54,18.261h0c-.685,1.87-1.315,3.787-1.852,5.791q-4.013,14.955-3.993,35.214l.013,17.685q.015,19.294,3.723,33.6a53.051,53.051,0,0,0,12.719,23.786q9.006,9.483,24.128,14.132t37.948,4.634l30.227-.022q13.821-.011,29.905-.665l7.366-39.88q-18.977.339-34.246.347l-28.458.021a87.124,87.124,0,0,1-15.436-1.114,20.156,20.156,0,0,1-9.811-4.333,16.775,16.775,0,0,1-5.151-8.358,59.621,59.621,0,0,1-1.779-13.5l75.889-.056a48.435,48.435,0,0,0,13.5-1.618,17.333,17.333,0,0,0,8.839-5.795,24.358,24.358,0,0,0,4.655-10.936,96.081,96.081,0,0,0,1.274-17.366l-.005-6.753Q555.961,406.64,538.585,389.764ZM451.8,444.012a100.152,100.152,0,0,1,1.113-16.723,21.43,21.43,0,0,1,4.172-10.131,15.933,15.933,0,0,1,8.357-5.151,68.316,68.316,0,0,1,27.977-.021,16.854,16.854,0,0,1,8.525,5.138A20.593,20.593,0,0,1,506.3,427.25a100.711,100.711,0,0,1,1.138,16.721Z" fill="#f8d00c"/>
        <path id="Path_5" data-name="Path 5" d="M736.04,390.1q-9.819-9.316-25.252-13.326T673.8,372.782l-109.972.081,7.156,20.987a26.667,26.667,0,0,0,25.258,18.059h0c-.36,1-.712,2.013-1.033,3.056q-4.654,15.121-4.636,36.984l.111,150.492,51.128-.038-.044-60.454a48.247,48.247,0,0,0,15.762,6.9,91.013,91.013,0,0,0,22.511,2.395q19.611-.015,33.762-4.2a51.563,51.563,0,0,0,23.3-13.845q9.156-9.654,13.487-25.092t4.313-37.947l-.012-16.079q-.018-23.152-4.53-38.906T736.04,390.1Zm-32.9,81.38a131.738,131.738,0,0,1-1.271,20.42q-1.283,7.884-4.654,12.063a16.6,16.6,0,0,1-9.321,5.633,66.428,66.428,0,0,1-15.274,1.459,64.708,64.708,0,0,1-14.953-1.436,17.82,17.82,0,0,1-9.49-5.46,23.467,23.467,0,0,1-4.993-10.93,91.909,91.909,0,0,1-1.461-18.166l-.017-23.153a114.1,114.1,0,0,1,1.433-20.26q1.441-7.717,4.976-11.74a17.844,17.844,0,0,1,9.482-5.474,77.979,77.979,0,0,1,29.905-.022,17.452,17.452,0,0,1,9.491,5.62q3.537,4.18,4.832,12.055a134.382,134.382,0,0,1,1.3,20.74Z" fill="#f8d00c"/>
      </g>
    </g>
    <g id="Group_3" data-name="Group 3">
      <path id="Path_6" data-name="Path 6" d="M624.547,313.828l.61.087-.445-.743Z" fill="#c00609"/>
      <path id="Path_7" data-name="Path 7" d="M626.383,312.625l-.076-.545-.413.656Z" fill="#c00609"/>
      <path id="Path_8" data-name="Path 8" d="M592.226,328.362l.01.018Z" fill="#c00609"/>
      <path id="Path_9" data-name="Path 9" d="M646.739,288.6c-.089-.12-.178-.229-.258-.328a1.561,1.561,0,0,1-.384-.623,1.735,1.735,0,0,1,.123-.751c.036-.118.074-.24.1-.359a.124.124,0,0,0-.025-.105.122.122,0,0,0-.1-.045.8.8,0,0,1-.636-.2,1.045,1.045,0,0,1-.138-.835,2.742,2.742,0,0,0-.088-.912c-.033-.159-.068-.324-.085-.482a.565.565,0,0,1,.057-.357c.2-.252.414-.488.624-.717.078-.085.155-.169.229-.252a.131.131,0,0,0,.034-.1.123.123,0,0,0-.116-.107l-.9-.049q-.094-.461-.189-.918c-.167-.8-.338-1.634-.49-2.451-.073-.391-.112-.8-.15-1.19-.013-.137-.026-.273-.041-.409a1.476,1.476,0,0,1,0-.22.734.734,0,0,0-.074-.469c-.111-.157-.22-.33-.325-.5a3.915,3.915,0,0,0-1.166-1.351c-.444-.262-.539-.429-.54-.522,0-.147.232-.295.459-.438l.147-.094a.128.128,0,0,0,.055-.093.124.124,0,0,0-.039-.1l-.771-.728a.123.123,0,0,0-.169,0l-.535.5-.3-.432.753-.59a.125.125,0,0,0,.045-.117l-.056-.356a.123.123,0,0,0-.1-.1l-.355-.132a.061.061,0,0,0,.022,0l.259-.152a.123.123,0,0,0,.061-.09c.187-1.457-.884-1.851-1.92-2.232l-.19-.07,1.2-.2a.121.121,0,0,0,.083-.054.124.124,0,0,0,.016-.1c-.246-.944-.892-.926-1.516-.909-.1,0-.194.006-.291.005l.936-.667a.128.128,0,0,0,.056-.093.122.122,0,0,0-.089-.13l-1.056-.3a.124.124,0,0,0-.125.035l-.641.7-.742-2.493a.123.123,0,0,0-.171-.077l-.055.026c-.484.23-1.087.517-1.386.361a.473.473,0,0,1-.216-.375,5.9,5.9,0,0,0-.7-1.8,9.192,9.192,0,0,1-.434-.9,1.429,1.429,0,0,0-1.512-1.105c-.065,0-.167-.1-.25-.183-.019-.019-.038-.038-.058-.056l.035-.036a1.08,1.08,0,0,1,.276-.236.533.533,0,0,1,.245-.01c.052.005.105.01.158.01a.127.127,0,0,0,.118-.077l.088-.215a.124.124,0,0,0-.04-.146l-.651-.49a.122.122,0,0,0-.137-.008l-1.326.774-.016-.01.6-.884a.123.123,0,0,0-.011-.152l-.9-.988a.122.122,0,0,0-.114-.039c-.517.1-.678.016-.727-.04-.1-.111-.007-.391.072-.639a1.266,1.266,0,0,0,.1-.756.125.125,0,0,0-.134-.08,1.456,1.456,0,0,1-1.108-.217.729.729,0,0,1-.278-.535c-.039-.5-.151-.78-.364-.9s-.483-.08-.88.114a1.061,1.061,0,0,1-.17-.07l-.024-.011.762-.366a.122.122,0,0,0,.069-.1.124.124,0,0,0-.042-.111l-1.652-1.407.5-.219a.127.127,0,0,0,.054-.046l.266-.415a.128.128,0,0,0,.008-.132.123.123,0,0,0-.155-.054,1.8,1.8,0,0,1-1.409.152c-.429-.2-.593-.741-.766-1.31-.018-.057-.036-.115-.053-.172-.039-.123-.07-.252-.1-.377-.014-.06-.029-.12-.044-.18a.123.123,0,0,0-.132-.092l-.235.023a.123.123,0,0,0-.111.123c0,.1,0,.206.007.307a3.883,3.883,0,0,1-.018.685.766.766,0,0,1-.226.5.62.62,0,0,1-.5-.176,1.276,1.276,0,0,1-.178-.388,1.4,1.4,0,0,0-.233-.479c-.046-.052-.092-.107-.139-.162a2.565,2.565,0,0,0-1.113-.917,2.923,2.923,0,0,0-1.279.069c-.161.032-.327.064-.5.09l.041-.72.515.48a.124.124,0,0,0,.145.017l.3-.172a.126.126,0,0,0,.049-.166c-.053-.1-.1-.215-.146-.333a1.756,1.756,0,0,0-.444-.737,4.339,4.339,0,0,0-1.023-.554c-.172-.074-.351-.152-.535-.242a.125.125,0,0,0-.128.011l-.537.392c-.072-.034-.143-.066-.213-.1a3.364,3.364,0,0,1-.564-.3.815.815,0,0,1-.2-.285l-.026-.047.047-.019c.134-.055.274-.112.408-.176s.247-.128.416-.221l.314-.173a.13.13,0,0,0,.071-.111.125.125,0,0,0-.11-.124c-.419-.048-.836-.087-1.24-.124-2.206-.2-4.111-.38-5.476-1.983a.119.119,0,0,0-.085-.044l-.29-.022c-.184-.014-.343-.026-.5-.041-.084-.008-.166-.021-.254-.034a2.363,2.363,0,0,0-.546-.04,3.458,3.458,0,0,0-.629.129l-.066.019.2-.937a.131.131,0,0,0-.021-.107.125.125,0,0,0-.155-.035l-.77.393a.97.97,0,0,0-.553-.475,1.19,1.19,0,0,0-.917.187c-1.137-1.367-2.582-1.13-3.981-.9l-.042.007.3-.281a.121.121,0,0,0,.04-.087.123.123,0,0,0-.034-.089.911.911,0,0,0-.641-.351h0a.942.942,0,0,0-.649.389,1.552,1.552,0,0,1-.193.185l-.853-.421c-.166-.377-.3-.6-.52-.665-.244-.079-.533.053-1.013.341a.123.123,0,0,0-.06.1.122.122,0,0,0,.053.106l.4.283-.03.067-1.921-.661a.123.123,0,0,0-.123.025l-.49.44-.257-1.453a.123.123,0,0,0-.136-.1l-1.209.137-.008,0,0,0-.082-.041-.749-.852a.125.125,0,0,0-.094-.042.128.128,0,0,0-.094.045l-.286.343a.124.124,0,0,0-.026.1.122.122,0,0,0,.065.085l1.03.516.005.006-.6,1.033-.756-.918a.123.123,0,0,0-.094-.045.12.12,0,0,0-.1.043l-.683.795-2.952-1.961a.122.122,0,0,0-.13,0,.672.672,0,0,0-.359.4.859.859,0,0,0,.209.637.957.957,0,0,1,.22.567c-.048-.009-.1-.017-.146-.024a.949.949,0,0,1-.356-.1,1.8,1.8,0,0,0-1.679-.931c-.105-.012-.213-.024-.317-.04-.53-.078-1.05-.138-1.6-.2l-.715-.084a.122.122,0,0,0-.126.067l-.313.626-.492-.255a.124.124,0,0,0-.159.041l-.775,1.145-.205-.556a.122.122,0,0,0-.075-.074.125.125,0,0,0-.1.011c-.059.036-.131.084-.207.134s-.179.12-.244.158a5.114,5.114,0,0,1-.4-.576c-.049-.078-.1-.159-.154-.241a.125.125,0,0,0-.17-.037c-.085.054-.187.108-.294.164a2.749,2.749,0,0,0-.793.551,3.353,3.353,0,0,1-3.177.99.873.873,0,0,1-.17-.053c-.13-.05-.253-.1-.345-.017a2.277,2.277,0,0,1-2.55.28.126.126,0,0,0-.151.055.134.134,0,0,0-.006.111l.581,1.536h-1.444l.179-.755a.129.129,0,0,0-.017-.1.122.122,0,0,0-.082-.054l-1.274-.235a.124.124,0,0,0-.13.061l-.159.28a.123.123,0,0,0,.009.135l.008.012c.212.283.429.574.644.864l-1.612-.25-.022,0a.128.128,0,0,0-.1.025.122.122,0,0,0-.034.15l0,.009-4.7,1.451-.061-.2a.124.124,0,0,0-.2-.057l-.224.195a.126.126,0,0,0-.043.094v.756l-1.015-.052a.122.122,0,0,0-.1.044.12.12,0,0,0-.026.106l.135.622c-.061.029-.12.06-.179.09a4.334,4.334,0,0,1-.567.254c-.16.053-.324.12-.483.184a2.547,2.547,0,0,1-1.228.288c-.629-.1-.82.011-1.018.572a3.7,3.7,0,0,1-.535.9c-.077.106-.157.215-.231.325-.261.387-.533.776-.8,1.153q-.144.205-.287.412l-.012,0v-.757a.122.122,0,0,0-.059-.1.124.124,0,0,0-.121-.006l-.395.2c-.264.135-.493.252-.726.362-.21.1-.428.191-.64.28l-.286.122a.123.123,0,0,0-.068.073.129.129,0,0,0,.008.1c.062.113.125.226.188.338.147.262.3.534.43.807a2.361,2.361,0,0,1,.142.447l.016.066c-.2,0-.244-.023-.255-.038-.331-.461-.515-.664-.735-.653s-.4.286-.632.7a.709.709,0,0,1-.326.209,1.45,1.45,0,0,0-.171.081.122.122,0,0,0-.054.131l.127.568-1.016-.794a.123.123,0,0,0-.168.015.127.127,0,0,0-.026.119l.051.2c.221.865.429,1.682.084,2.151a1.648,1.648,0,0,1-1.3.489.133.133,0,0,0-.1.052.123.123,0,0,0,.016.161c.266.256.4.463.387.617s-.189.3-.395.451a1.106,1.106,0,0,0-.611,1,.125.125,0,0,0,.062.1l.678.387a4.353,4.353,0,0,0-3.145,2.775.123.123,0,0,0,.066.161.131.131,0,0,0,.141-.031.7.7,0,0,1,.445-.256c.145,0,.27.13.4.265l.025.026.224-.2.276-.249.229,1.3-.528-.586-.057,1.114-.728-.806-.022.075a.686.686,0,0,1-.568-.137.388.388,0,0,1-.135-.346.12.12,0,0,0-.044-.109.122.122,0,0,0-.116-.023l-.936.29a.125.125,0,0,0-.083.087l-.09.341a.125.125,0,0,0,.053.136c.143.091.289.18.431.266a11.512,11.512,0,0,1,1.039.687.657.657,0,0,1,.172.286c-1.005-.555-1.111-.531-1.856.036a.125.125,0,0,0-.029.167c.6.9.61,1.019-.846,2.06a.128.128,0,0,0-.057.114.124.124,0,0,0,.113.114l2.038.162-.062.293H549.2a.124.124,0,0,0-.119.091l-.095.338a.124.124,0,0,0,.07.148l1.25.535-1.422,1.023a.131.131,0,0,0-.056.1.124.124,0,0,0,.1.128l1.258.255,0,.015-1.064.062a.125.125,0,0,0-.116.134l.228,2.683a.36.36,0,0,1-.211.21c-.222.079-.6-.031-1.116-.325a.124.124,0,0,0-.168.045,5.36,5.36,0,0,0-.654,3.6l-.576.9a.124.124,0,0,0,.055.18l.937.411c-.178.247-.349.492-.516.73a17.834,17.834,0,0,1-1.308,1.725,1.667,1.667,0,0,0-.082,2.575.8.8,0,0,1,.192.794.494.494,0,0,1-.44.3c-.437.04-.665.135-.739.306s.059.358.159.486l.024.031-.711,2.161a.123.123,0,0,0,.04.136l.643.51-.473.445a.122.122,0,0,0-.039.1.125.125,0,0,0,.049.092l1.247.934-.8.726a.123.123,0,0,0-.039.1.12.12,0,0,0,.062.094,1.111,1.111,0,0,1,.568.724,1.047,1.047,0,0,1-.208.856c-.284.389-.593.773-.921,1.18-.155.192-.316.393-.486.607a.132.132,0,0,0-.027.114.123.123,0,0,0,.137.091l1.555-.224.016.047-1.008.69a.122.122,0,0,0-.054.1.126.126,0,0,0,.043.1l.61.524-1.425,1.676a.129.129,0,0,0-.023.134.123.123,0,0,0,.154.068c.417-.144.705-.167.856-.068s.176.361.2.61c.022.29.044.589.283.724a.124.124,0,0,0,.164-.036l.4-.571c.033.024.066.046.1.069.132.089.269.181.306.281a1.01,1.01,0,0,1,.061.8.749.749,0,0,1-.505.34,1.524,1.524,0,0,0-.5.307c-.09.072-.193.152-.314.237a.129.129,0,0,0-.058.094.123.123,0,0,0,.091.131l.775.206a5.521,5.521,0,0,1,.018.577,1.884,1.884,0,0,0,.661,1.76l-.185.046a.129.129,0,0,0-.1.121.124.124,0,0,0,.122.125c.564.006.627.316.707.708.057.278.121.593.427.718l.006,0,.426.148a1.665,1.665,0,0,0-1.108.928,1.235,1.235,0,0,0,.313,1.152c.116.148.222.31.324.468s.229.349.36.514c.251.313.513.611.791.926l.3.342-.493.639a.125.125,0,0,0-.02.113l.555,1.741a.124.124,0,0,0,.069.076l1.97.845a1.419,1.419,0,0,0-.466,1.157,1.717,1.717,0,0,0,1,1.135l-.533.578a.126.126,0,0,0-.032.1.123.123,0,0,0,.049.087l.7.528-.257.491a.123.123,0,0,0,.019.142l1.422,1.507h-.011a.691.691,0,0,0-.37.1c-.054.042-.116.086-.181.132-.29.206-.59.418-.581.665a.536.536,0,0,0,.183.433c.212.16.539.079.828.007a5.054,5.054,0,0,1,.9-.108l.284-.019v.008l-.756.505a.124.124,0,0,0-.04.161l.087.166a.124.124,0,0,0,.149.06l1.444-.478.012.028-1.416,1.337a.124.124,0,0,0-.037.114l.067.337a.124.124,0,0,0,.19.079c1.287-.864,1.923-.2,2.6.505a5.812,5.812,0,0,0,.6.575.126.126,0,0,0,.1.024.123.123,0,0,0,.083-.055c.039-.06.075-.122.11-.182a1.817,1.817,0,0,1,.259-.374.777.777,0,0,1,.2.029c-.008.317-.032.629-.053.907l-.012.156a.118.118,0,0,0,.013.066l1.08,2.135a.125.125,0,0,0,.111.068h.8a.166.166,0,0,0,.032,0,.124.124,0,0,0,.061.1.127.127,0,0,0,.142-.011c.3-.221.6-.441.885-.651l-.253,1.244a.13.13,0,0,0,.029.114.125.125,0,0,0,.164.018l.352-.256c.229-.166.427-.31.629-.448.183-.125.376-.247.562-.364.084-.053.168-.106.251-.16a.122.122,0,0,0,.02-.192,2.862,2.862,0,0,0-.221-.19,1.008,1.008,0,0,1-.345-.374,8.245,8.245,0,0,1-.284-1.244c-.019-.112-.039-.225-.06-.337l.014-.009c.029-.019.053-.035.074-.051l.005-.005.126-.122.216.545a.124.124,0,0,0,.082.074.127.127,0,0,0,.108-.021l.568-.433.329,1.788a.125.125,0,0,0,.081.094c.785.276,1.271.289,1.576.04s.4-.762.28-1.644c-.009-.065-.024-.13-.039-.192a.672.672,0,0,1-.029-.316.542.542,0,0,1,.139-.2l.453.943-.255,2.056-.554-.04a.119.119,0,0,0-.09.03.122.122,0,0,0-.042.085c0,.058,0,.108,0,.153a.4.4,0,0,1-.011.138c-.109.213-.232.425-.351.63l-.058.1-.07-.069a1.593,1.593,0,0,0-.487-.374,1.347,1.347,0,0,0-.951-.08,1.362,1.362,0,0,0-.485.511c-.052.077-.1.15-.15.212a.124.124,0,0,0-.012.141l.458.792a.123.123,0,0,0,.173.042c.62-.39.92-.1,1.3.271a3.054,3.054,0,0,0,.4.346l-.444.7a.122.122,0,0,0-.008.116.125.125,0,0,0,.092.072l.842.143a.124.124,0,0,0,.123-.053l.354-.525q.053.045.105.087c.116.1.275.225.277.3a.782.782,0,0,0,1.053.865.539.539,0,0,1,.142.088h0l-.014.017c-.051.063-.121.149-.164.156a1,1,0,0,1-.331-.029,1.806,1.806,0,0,0-.279-.04,2.245,2.245,0,0,0-2.083,1.158.127.127,0,0,0-.008.121.122.122,0,0,0,.1.069,6.013,6.013,0,0,0,2.193-.159,1.434,1.434,0,0,1,1.408.544,2.967,2.967,0,0,0,.21.4c.032.054.064.108.094.162a.129.129,0,0,0,.123.07.124.124,0,0,0,.113-.13c-.034-.655.3-.706.732-.771a1.469,1.469,0,0,0,.547-.155c.055.067.112.134.168.2a3.781,3.781,0,0,1,.544.752,2.393,2.393,0,0,1-.3.322c-.1.1-.21.2-.3.309a.132.132,0,0,0-.035.1.124.124,0,0,0,.1.112l1.817.294.17,1.2a.123.123,0,0,0,.078.1.111.111,0,0,0,.044.008.12.12,0,0,0,.079-.028c.213-.177.406-.365.593-.547a3.12,3.12,0,0,1,1.131-.833c.412-.123.645-.282.731-.5a.854.854,0,0,0-.1-.694c.4.111.613.239.7.414.1.2.037.516-.2,1.009a.129.129,0,0,0,.018.145.124.124,0,0,0,.175.006c.284-.264.516-.379.689-.339s.321.235.472.618a.128.128,0,0,0,.083.074.124.124,0,0,0,.108-.022l.2-.157a.123.123,0,0,0,.044-.13l-.323-1.185a2.633,2.633,0,0,0,.616.508c.421.219.941.45,1.237.29a1.258,1.258,0,0,1,.966-.216.438.438,0,0,1,.251.3.122.122,0,0,0,.095.083l3.187.6a.123.123,0,0,0,.124-.05l1.888-2.657a1.06,1.06,0,0,0,.956-.35c.523-.637.261-1.944-.05-2.928a.129.129,0,0,0-.061-.073.121.121,0,0,0-.095-.007l-.6.193a.11.11,0,0,0-.026.015l.051.1.166.312.4.752-1.064.568.351-1.154-.753.4.709-1.235.015.03a1.734,1.734,0,0,0-1-1.4l1.009-.5v0l1.524.25-.854.358,1.054.431,1.079-.566.065-.037.344-.194.391-.222-.071,1.591-.47-.831-.361,1.3-.517-.914c-.384.339-.606.589-.584.851a.435.435,0,0,0,.019.094l1.782.079-1.046.592.033.02,1.613.448-1.5.848-.223-.4c-.037.043-.074.087-.109.131l-.277-.307-.036.7-.33-.366.122.693c-.037.052-.075.1-.113.154a.124.124,0,0,0,.022.171l.2.156a.125.125,0,0,0,.141.01l.761-.455c.713-.426,1.449-.866,2.183-1.283l-.224-.054-.381-.092.99-.971-.194.808,1-.614-.274,1.143-.218-.053a2.061,2.061,0,0,1-.538.232,3.24,3.24,0,0,1-.411.089c-.333.057-.646.111-.747.323a2.033,2.033,0,0,0-.083,1.018c.011.139.023.283.023.416a.125.125,0,0,0,.114.125l.372.03a.123.123,0,0,0,.132-.1l.169-.842.32-.033.237,1.806.888-1.185-.082.979,1.061-.9,1.478-1.061a2.225,2.225,0,0,0,.505-.271.129.129,0,0,0,.048-.158.125.125,0,0,0-.171-.057l-.33.131-.692.392.212-.766-.489.277.447-.825h0l-.346-.458c.2-.22.4-.439.6-.652.554-.61,1.078-1.186,1.641-1.731a1.654,1.654,0,0,1,.654-.288l.1-.029-2.344,2.588a.122.122,0,0,0-.03.105.123.123,0,0,0,.064.088l.006,0c.142.074.381.2.619.327a.123.123,0,0,0,.139-.016c.161-.138.323-.279.485-.419l.124.036,0,2.911a.125.125,0,0,0,.182.11l1.077-.566.2.944a.125.125,0,0,0,.2.07l.985-.8a.122.122,0,0,0,.045-.11.12.12,0,0,0-.068-.1l-.788-.387.025-.07,1.127.206a.123.123,0,0,0,.142-.088l.429-1.554c.031.047.06.094.087.137.16.257.265.427.43.423a1.017,1.017,0,0,0,.726-.506.535.535,0,0,0,.06-.217,4.013,4.013,0,0,1,.007-.533,1.417,1.417,0,0,1,.191-.381c.02-.034.042-.068.062-.1l.243.06c-.012.109-.022.219-.032.326a8.15,8.15,0,0,1-.135,1,1.27,1.27,0,0,1-.179.348c-.121.189-.235.367-.172.535a1.156,1.156,0,0,0,.878.691c.231-.015.411-.253.585-.483.041-.055.084-.111.126-.163a1.484,1.484,0,0,0,.327.14c.18.061.365.124.415.249a.6.6,0,0,1-.107.456.124.124,0,0,0-.01.094.128.128,0,0,0,.061.074c.069.037.137.077.209.12a2.183,2.183,0,0,0,.528.255,2.694,2.694,0,0,0,.617.073l-.075,1,.882-.758-.062.82.606-.822.989.322a.125.125,0,0,0,.1-.012.123.123,0,0,0,.06-.082l.3-1.4a.125.125,0,0,0-.064-.135c-.3-.166-.638,0-.96.15a1.329,1.329,0,0,1-.7.207l-.5.3.049-2.213.679,1.14.461-1.819.959,1.61c.658-.071,1.177-.065,1.181-.086l.073-.017.286-1.218-1.2.743,1.036-2.111.35.565.308.5.724,1.168c.656-.158,1.27-.312,1.286-.334l.669-.926a.849.849,0,0,0,1.265-.863l.671-.609.68.369a.124.124,0,0,0,.158-.035l.283-.135,0,.01a.125.125,0,0,0,.047.117.121.121,0,0,0,.084.025l-.027-.012,4.033-2.694-1.192,2.651,3.844-1.459-.892,1.983,1.007.6-.408.318,0,0-1.034.291a.124.124,0,0,0-.091.119l0,2.138-1.4-.562-.065-.026a.124.124,0,0,0-.159.064,1.662,1.662,0,0,0-.054,1.673,1.851,1.851,0,0,0,1.6.6c.131,0,.269-.006.413-.018a.132.132,0,0,0,.093-.047.125.125,0,0,0,0-.153l-.529-.677.255-.517,2.26,1.353a.124.124,0,0,0,.064.018.126.126,0,0,0,.1-.055.131.131,0,0,0,0-.141l-.457-.723.9-1.292h0a.157.157,0,0,0,.026-.013l0,0,.02-.017,0,0,0,0,.005-.008a.166.166,0,0,0,.011-.019l.005-.015,0-.013v-.008l.206-.241a9.359,9.359,0,0,1,.666-.728.567.567,0,0,1,.28-.074h0c-.022.106-.047.216-.068.324s-.033.2-.038.237l0,.015a.125.125,0,0,0,.03.1.128.128,0,0,0,.1.04l2.641-.16a.133.133,0,0,0,.1-.051.125.125,0,0,0-.011-.16l-1.253-1.284.3-.656a.713.713,0,0,1,.227-.029,1.68,1.68,0,0,0,.095.627.8.8,0,0,0,.375.524.876.876,0,0,0,.705-.084c.232-.094.394-.15.524-.092l-.813,2.007a.123.123,0,0,0,.123.17c.109-.007.216-.005.31,0,.217.006.374.009.459-.1.406-.545.79-.316,1.3-.1.082.035.166.064.251.093.153.053.327.138.36.259s-.047.264-.218.456a1.2,1.2,0,0,0-.226.522c-.02.079-.04.154-.064.223a.124.124,0,0,0,.086.162l.333.083a.123.123,0,0,0,.15-.089c.039-.152.066-.313.092-.468a2.18,2.18,0,0,1,.291-.922,1.677,1.677,0,0,1,.746-.434c.145-.057.3-.117.437-.187a.121.121,0,0,0,.068-.1.123.123,0,0,0-.054-.111l-.723-.487.525-.037h.018a.125.125,0,0,0,.1-.061l.344-.589.61,1.672a.124.124,0,0,0,.111.081.126.126,0,0,0,.118-.072l1.184-2.537,1.108-.488a.125.125,0,0,0,.075-.082.123.123,0,0,0-.066-.145l-.2-.1c0-.1-.009-.2-.016-.3a2.189,2.189,0,0,1,.042-.8c.038-.112.228-.215.412-.315.056-.03.113-.061.169-.094.31,1.029.5,1.572.87,1.661.391.094.84-.351,1.738-1.285a.124.124,0,0,0,.019-.147l-.542-.965a.125.125,0,0,0-.108-.064h0a.124.124,0,0,0-.108.064l-.615,1.116-.361-.435c.075-.137.141-.263.2-.377a3.446,3.446,0,0,1,.409-.67.879.879,0,0,1,.388-.187l.078-.025a.541.541,0,0,0,.16.32.849.849,0,0,0,.653.137,1.8,1.8,0,0,1,.2-.005A2.246,2.246,0,0,0,638,324.13c.176-.119.183-.4.19-.755,0-.155.008-.33.027-.5a.135.135,0,0,0-.037-.11.124.124,0,0,0-.164-.006l-.525.429-.47-.586h.645a.126.126,0,0,0,.1-.051l.846-1.163a.124.124,0,0,0-.059-.19l-.817-.288.535-.726a.124.124,0,0,0,.009-.133l-.967-1.763.174-.092.573.981a.122.122,0,0,0,.154.052c.525-.215.795-.432.849-.68.061-.283-.163-.522-.38-.753a2.032,2.032,0,0,1-.313-.39l1.423,1.377a.126.126,0,0,0,.112.033.125.125,0,0,0,.089-.076l.78-1.992a.134.134,0,0,0,0-.109.124.124,0,0,0-.146-.06l-.98.3.835-.648.524.237v1.168a.124.124,0,0,0,.074.113l.278.124a.124.124,0,0,0,.14-.028l1.743-1.829a.122.122,0,0,0,.029-.118.123.123,0,0,0-.087-.087l-1.445-.391,0-.035,1.086-.236a.125.125,0,0,0,.088-.17l-.323-.751.578-.658a.734.734,0,0,0,.49.182.82.82,0,0,0,.531-.374.907.907,0,0,1,.372-.319.126.126,0,0,0,.087-.107.123.123,0,0,0-.08-.127c-.11-.042-.227-.084-.333-.122l-.24-.088c.119-.388.259-.771.407-1.173l.072-.2a.125.125,0,0,0-.048-.145c-.368-.248-.561-.384-.576-.531-.016-.162.153-.44.435-.9a.953.953,0,0,0,.036-.9l-.064-.083c-.192-.252-.3-.391-.3-.5a.7.7,0,0,1,.15-.334l.161.578a.132.132,0,0,0,.077.09.124.124,0,0,0,.155-.062l.693-1.436a.122.122,0,0,0,.009-.084,3.622,3.622,0,0,1-.061-1.58,1.216,1.216,0,0,0-.089-.993.915.915,0,0,0-.74-.271h0l-.82-.345a1.1,1.1,0,0,1,.46-.454c.335-.227.751-.509.454-1.141a5.392,5.392,0,0,0-.692-1.023c-.112-.141-.228-.286-.333-.432a.124.124,0,0,0-.093-.051l.877-.736a.126.126,0,0,0,.044-.089.128.128,0,0,0-.036-.093.577.577,0,0,1-.225-.411c.016-.16.214-.29.4-.417a2.019,2.019,0,0,0,.272-.2.123.123,0,0,0,.038-.1.124.124,0,0,0-.057-.093c-.088-.054-.171-.1-.251-.151a3.278,3.278,0,0,1-.476-.316.777.777,0,0,1,.1-.281c.14-.215.3-.423.468-.644l.175-.229.594.134a.124.124,0,0,0,.151-.121v-1.964a.124.124,0,0,0-.055-.1l-1.155-.782.043-.081.932-.061a.123.123,0,0,0,.115-.125,3.192,3.192,0,0,0-.023-.322.985.985,0,0,1,0-.369,2.461,2.461,0,0,0,.748-1.9c.016-.2.034-.409.067-.605a1.422,1.422,0,0,0-.151-.787.156.156,0,0,0-.114-.065c-.609-.039-.62-.333-.635-.741a1.227,1.227,0,0,0-.125-.611l.06-.093,1.486.556a.16.16,0,0,0,.184-.245Zm-79.9,37.638-.879-.373-.364-.154-.414-.176,1.306-.912-.373.878,1.251-.505Zm3.231-12.418-1.267-.466.33-.895.136-.371.155-.423.975,1.259-.9-.329Zm2.6,17.169-.358-.885-.527,1.242-.506-1.251.885-.358.367-.148.417-.168Zm9-8.381.242-.219.276-.249.229,1.295-.528-.585-.057,1.113-.747-.827Zm.148,5.874-.642.31-.219-.454-.091-.188-.1-.214.836.092-.454.219Zm-.853-1.507-.072-.5-.031-.206-.034-.235.77.339-.5.072.572.427Zm.654-1.509-.263.039.38-.862.081.558.477-.639.115.789-.559.082Zm-.661-.819.432-.124-.439,1.53-.264-.917-.653,1.181-.373-1.3.917-.264Zm-1.814-4.88.346.89.544-1.235.488,1.258-.889.345-.369.143-.419.163Zm.28,4.067-.581.757-.241.313-.274.357-.556-1.492.757.581-.176-1.338Zm-.831,3.3-.819-.161.115-.579.047-.24.054-.272.717.673-.579-.114Zm-.991-4.786.206-.337.235-.384.71,1.426-.814-.5.316,1.313-1.151-.7Zm-3.772.522.781-.793.562.552.232.229.264.26-1.278.3.553-.561Zm.885,2.453-.3-1.278.562.553-.01-1.114.794.781-.552.561-.228.233Zm1.429.805-.562-.551-.233-.228-.265-.26,1.277-.307-.551.562,1.114-.011Zm.783,2.363-.374.25-.049-1.591.531.792.261-1.324.752,1.121-.793.532Zm1.49,1.525-1.1-.066.046-.775.019-.321.022-.365,1.055.752-.775-.047Zm-.141-.973-.352-.467-.146-.194-.166-.221.973-.084-.468.353.821.115Zm1.019,2.35-.013.216-.014.247-.713-.505.523.029-.493-.552.739.042Zm-.487-1.931.415-1.254.171-.519.161-.486-.174.016-.448.04.721-1.419.085.95.865-1.036.121,1.345-.951.085-.105.009L581,328.8l-1.254-.415.676,1.344.2-.305.677,1.441-.8-.517.286,1.319-1.135-.73.516-.8.118-.182Zm2.638,3.179-.483-.292-.2-.121-.227-.137.84-.425-.292.483.775-.191Zm1.591-1.947-1.281-.423.3-.906.124-.375.141-.428,1.017,1.226-.906-.3Zm.307-4.437-.828.475,1.3.353-1.171.671-.474-.828-.2-.343-.224-.39Zm.257-2.459.069,1.348-1-.9.64-.708.265-.293.3-.334.435,1.532Zm2.819.226-1.281-.424.3-.906.124-.375.141-.427,1.016,1.226-.906-.3Zm4.44,5.5-.155-.54-.065-.224-.073-.254.9.258-.54.156.7.384Zm4.5-1.328.429,1.518-1.377-.771.545-.973.226-.4.257-.459.894,1.633Zm1.471-.246-.756-.561-.313-.233-.356-.265,1.463-.571-.562.756,1.318-.195Zm.222-2.548-.372,0-.424,0,.786-1.279.007.9.892-.907.011,1.272ZM630.34,320.8l-.586.037.623.55-.828.052-.037-.586-.016-.243-.017-.276Zm-.218-.912-.723.409.222-.8-.511.289.467-.861.136.24.12.212ZM629.04,309.85l-.176-.911,1.056,1.132-.429.083-.377.073-.911.177-.25-1.288Zm-5.567,7.44-.824.567,1.391.256-1.164.8-.568-.824-.235-.341-.267-.388Zm-1.6-.9.586-.046.242-.019.276-.022-.453.869-.046-.586-.539.632Zm4.251,2.487-1.193.578,1.771.615-1.687.817-.578-1.192-.239-.494-.273-.563Zm1.692,2.394-1.035.829,1.864.206-1.463,1.172-.829-1.035-.343-.428-.391-.488Zm-.7-.206-.216-1.308-.089-.542-.1-.616,2.041.853-1.308.215,1.524,1.092Zm-.227-2.764,1.269-.384-1.652-.885,1.794-.543.383,1.269.159.525.181.6Zm1.418-3.936L627,314.055l.221-.928.092-.385.1-.437,1.117,1.134-.928-.221Zm-.627-.122-.82.489,1.309.331-1.159.691-.489-.819-.2-.34-.231-.386Zm-.905-2.462.116-1.344.869,1.033-.731.614-.3.254-.336.282.817-.185-.72,1.141-.807-.508-.277-.175-.021,1.053.667.1-.873.387,1.259.486-1.234.546-.386-.872-.16-.362-.136-.3-.245.977.967.981-.928-.221.645,1.049.366-.406-.165.941,1.061-.745-.4-.276-.24-.168-.272-.19,1.082-.46-.4.578.982-.175-.571.818-.148-.1-.223,1.275-.94-.165-.39-.068-.443-.078.637-.707-1.188-.282.221-.929.092-.384.1-.438.036.036-.842-1.406,1.114-.667.461-.276.525-.314-.005.283.877-.422-.13-.928Zm-1.748-1.884-.165.94,1.1-.775-.233,1.329-.94-.165-.389-.068-.443-.078Zm-.9,1.278-.508.807,1.316-.3-.72,1.141-.807-.508-.334-.211-.381-.24Zm-2.293.344.119-.211.136-.242.468.861-.511-.288.223.8-.723-.408Zm-.987,1.689.119-.212.136-.241.216.4,0-.057-.015-.243-.018-.276.862.467-.586.037.622.549-.828.052-.013-.2-.28-.159.223.8-.724-.407Zm-.107.965-.448.38.828.068-.633.537-.38-.448-.157-.185-.179-.211Zm-.909.606.137.819-.579.1-.24.04-.273.046.376-.9.1.579Zm-.87-65.3-.35-.556.988.475-.262.166-.23.145-.556.35-.5-.786Zm-.826,62.255.225-.094.135-.057-.449.029-.037-.586-.016-.243-.017-.276.861.466-.586.037.623.55-.266.016-.151.924-.228-.542-.314.769-.321-.766Zm-1.8,1.508.669,1.129.23-.9.471,1.475-.424-.108-.372-.1-.9-.23Zm.411,4.2-.146.817-.578-.1-.239-.043-.273-.049.658-.726-.1.578Zm-.3.056-.321-.766.541-.227.224-.094.256-.107-.159.966-.227-.541Zm.57-1.375-.242.021-.276.023.449-.871.049.585.536-.634.07.827Zm-2.879-.36.508.925.416-1.434.72,1.308-.925.508-.383.211-.436.24Zm1.085,2.9.493.4.561.454-2.413.831.961-1.19-2.15.229,1.359-1.683Zm-.671,3.28-.828.052-.037-.586-.016-.243-.017-.276.861.467-.586.037Zm-2.03-5.42.1-.424.12-.483,1.224,1.266-1.025-.254.771,1.278-1.449-.358Zm-.95-5.219-.351-.556.988.476-.262.165-.23.145-.556.351-.5-.787Zm-1.874,1.1.047.435.041.382.1.923-1.3.14.823-1.022-.923.1Zm-1.606,4.825.2-.327.231-.372.682,1.39-.789-.489.3,1.278-1.115-.692Zm-1.4,1.771.827.108-.077.585-.031.242-.036.275-.759-.625.584.076Zm1.093,3.644-.627-1.893,1.781.9-.633,1.26-.262.521-.3.594-1.221-2.01Zm-1.456,1.148-1.4.147-.58.061-.661.07,1.033-2.113.147,1.4,1.255-1.549Zm-2.669-2.9-.692-1.115.788-.49.327-.2.371-.231-.006,1.548-.489-.788Zm-1.358-6.244-.522-1.244.88-.369.316-.133-.235-.06.24-.924.1-.383.113-.435,1.094,1.156-.924-.239.685,1.163-.658-.17-.208,1.269-.369-.88Zm.982-.174.911.285.377.118.429.135-1.21,1.035.286-.911-1.2.626Zm2.18,10.169-.207.545-.5,1.318-1.864-.708,1.818-.817-1.318-.5,2.307-.46Zm1.644,1.086-.314.505-.927-1.889,1.072.665-.407-1.738,1.516.941-.665,1.072Zm1.331-.473.627,1.893-1.781-.895.633-1.26.262-.521.3-.594,1.221,2.01Zm1.8,1.255-.113.1-.129.108-.081-.589.228.273.045-.5.323.386Zm-.367-2.754-.275-.775-.114-.321-.129-.365,1.339.3-.775.275,1.05.5Zm.756-7.9-.336.185-.383.211.087-1.546.447.813.366-1.26.632,1.15Zm.941,3.574.541-.227.224-.094.256-.108-.159.967-.227-.541-.314.768Zm.3,2.947.377.45.073-.827.533.637-.45.377-.187.156-.212.177Zm.635,3.518-.192.046L612.1,326l.25-.753.112.462.35-.575.159.654Zm.451-4.5-.344.289-.222-1.576.614.73.117-1.345.868,1.034-.73.614Zm.75,2.787-.24.04-.273.045.376-.9.1.58.482-.676.137.819Zm.817-1-.38-.448-.157-.185-.179-.211.97-.141-.448.38.828.068Zm.372-.949-.037-.586-.015-.242-.018-.277.862.467-.586.037.622.549Zm2.069.961-.356-.023-.147-.01-.167-.01.347-.483-.023.356L617,322.7Zm-.3-1.417-.37-.085-.421-.1,1.081-1.082-.205.894,1.1-.689-.29,1.264Zm1.2,1.566-.36-.133-.149-.055-.169-.063.506-.391-.133.36.493-.227Zm.561-.927-.1.514-.294-.432.306-.209.126-.086.144-.1.024.617Zm.778.512-.475-.065.046-.336.02-.138.021-.159.434.363-.336-.046Zm.374-.024-.3.025.479-.936.054.628.574-.682.077.888-.628.054Zm.349,6.726.106-.227-.333.12.151-.321.227.107.094.044.107.05Zm.951-.091-.541-.228-.224-.1-.255-.107.8-.563-.229.541.77-.313Zm-.251-.6.294-.776-.535.241.544-.815.113.252.1.222.241.535Zm-.7-7.7-.893-1.053-.37-.436-.421-.5,2.279-.331-1.052.893,1.945.16Zm.967-1.916.41-.913.17-.377.193-.43.927,1.387-.912-.41.5,1.322Zm2.44,9.567-.246-.793-.273.52-.074-.977.245.129.215.113.52.274Zm1-2.067-.746-.326-.309-.135-.351-.153,1.12-.766-.325.745,1.071-.42ZM622,324.209l1.093-2.432.453-1.007.515-1.147,2.471,3.7L624.1,322.23l1.339,3.525Zm3.874,1.3-.578-1.193-.24-.494-.272-.562,2.2.239-1.193.578,1.77.615Zm1.081,1.152-.015-.243-.017-.276.861.467-.586.037.623.549-.829.052Zm1.152,4.819-.115.014-.13.016.2-.421.034.276.242-.31.048.39Zm-.243-2.464-.242.03-.274.034.413-.888.073.583.51-.655.1.824Zm1.8-5.508-.312.874-1.236-.441,1.186-.562-.874-.312,1.511-.333-.146.412Zm.21,4.278.548-.623-.586.037.8-.571.018.276.015.243.037.586Zm.795-1.352.222-.8-.511.289.467-.861.136.241.12.211.289.512Zm1.168.772-.121-.574-.05-.238-.057-.271.92.338-.575.121.7.453Zm.53-1.7-.868-.3-.359-.122-.409-.14,1.187-.965-.3.868,1.164-.572Zm.522-13.8.41-2.476-1.443,1.033,1.125-2.738.487.68.428.6,1.033,1.443Zm7.038-39.413-.377.073-.911.177-.25-1.289,1.088.735-.177-.911,1.056,1.131Zm2.923,35.931-.036-.586-.016-.243-.017-.276.861.467-.586.037.623.549Zm.964-3.148.047-.267.053-.3.812.73-.645-.113.532.758-.912-.16Zm.042.763-.2.624.822-.426-.28.882-.623-.2-.259-.082-.293-.093Z" fill="#c00609"/>
      <path id="Path_10" data-name="Path 10" d="M551.369,261.9a.123.123,0,0,0-.066.078l-.116.392.443-.4-.158-.071A.127.127,0,0,0,551.369,261.9Z" fill="#c00609"/>
    </g>
  </g>
</svg>
